<?xml version="1.0" standalone="no"?>
<!DOCTYPE svg PUBLIC "-//W3C//DTD SVG 20010904//EN"
 "http://www.w3.org/TR/2001/REC-SVG-20010904/DTD/svg10.dtd">
<svg version="1.0" xmlns="http://www.w3.org/2000/svg"
 width="604.000000pt" height="468.000000pt" viewBox="0 0 604.000000 468.000000"
 preserveAspectRatio="xMidYMid meet">

<g transform="translate(0.000000,468.000000) scale(0.100000,-0.100000)"
fill="#000000" stroke="none">
<path d="M2262 4358 c1 -13 1 -141 0 -285 l-2 -263 -545 0 -545 0 0 -35 0 -35
125 0 124 0 3 -97 c3 -97 3 -98 28 -98 25 0 25 2 30 95 l5 95 424 3 c333 2
426 0 433 -10 4 -7 8 -52 8 -100 0 -91 3 -98 44 -82 13 5 16 24 16 100 l0 94
145 0 145 0 0 35 c0 34 -1 35 -40 35 l-40 0 -2 173 -3 172 -72 3 -73 3 0 -176
0 -175 -60 0 -60 0 -1 223 c-1 122 -4 249 -8 282 l-6 60 -37 3 c-33 3 -37 1
-36 -20z m58 -79 c0 -14 -5 -19 -17 -17 -26 5 -29 38 -4 38 15 0 21 -6 21 -21z
m-11 -236 c0 -120 -3 -159 -10 -138 -14 45 -8 305 7 305 2 0 4 -75 3 -167z"/>
<path d="M4350 3950 c0 -47 3 -60 15 -60 10 0 15 -10 15 -30 0 -16 5 -30 10
-30 6 0 10 14 10 30 0 28 3 30 35 30 33 0 35 2 35 35 0 32 2 35 30 35 17 0 30
5 30 10 0 6 -13 10 -30 10 -20 0 -30 5 -30 15 0 12 -13 15 -60 15 l-60 0 0
-60z m108 3 l-3 -48 -45 0 -45 0 -3 48 -3 47 51 0 51 0 -3 -47z"/>
<path d="M4380 3950 c0 -16 5 -30 10 -30 6 0 10 9 10 20 0 13 7 20 20 20 11 0
20 5 20 10 0 6 -13 10 -30 10 -27 0 -30 -3 -30 -30z"/>
<path d="M5430 3995 c0 -10 -10 -15 -30 -15 -16 0 -30 -4 -30 -10 0 -5 14 -10
30 -10 28 0 30 -3 30 -35 0 -33 2 -35 35 -35 32 0 35 -2 35 -30 0 -16 5 -30
10 -30 6 0 10 14 10 30 0 20 5 30 15 30 12 0 15 13 15 60 l0 60 -60 0 c-47 0
-60 -3 -60 -15z m110 -46 l0 -50 -47 3 -48 3 -3 48 -3 47 50 0 51 0 0 -51z"/>
<path d="M5460 3970 c0 -5 9 -10 20 -10 13 0 20 -7 20 -20 0 -11 5 -20 10 -20
6 0 10 14 10 30 0 27 -3 30 -30 30 -16 0 -30 -4 -30 -10z"/>
<path d="M4575 3970 c3 -5 19 -10 35 -10 16 0 32 5 35 10 4 6 -10 10 -35 10
-25 0 -39 -4 -35 -10z"/>
<path d="M4685 3970 c3 -5 19 -10 35 -10 16 0 32 5 35 10 4 6 -10 10 -35 10
-25 0 -39 -4 -35 -10z"/>
<path d="M4800 3970 c0 -5 16 -10 35 -10 19 0 35 5 35 10 0 6 -16 10 -35 10
-19 0 -35 -4 -35 -10z"/>
<path d="M4915 3970 c3 -5 22 -10 41 -10 19 0 34 5 34 10 0 6 -18 10 -41 10
-24 0 -38 -4 -34 -10z"/>
<path d="M5030 3970 c0 -5 16 -10 35 -10 19 0 35 5 35 10 0 6 -16 10 -35 10
-19 0 -35 -4 -35 -10z"/>
<path d="M5145 3970 c3 -5 19 -10 35 -10 16 0 32 5 35 10 4 6 -10 10 -35 10
-25 0 -39 -4 -35 -10z"/>
<path d="M5255 3970 c3 -5 19 -10 35 -10 16 0 32 5 35 10 4 6 -10 10 -35 10
-25 0 -39 -4 -35 -10z"/>
<path d="M4380 3750 c0 -25 4 -39 10 -35 6 3 10 19 10 35 0 16 -4 32 -10 35
-6 4 -10 -10 -10 -35z"/>
<path d="M5507 3783 c-11 -10 -8 -61 3 -68 6 -4 10 10 10 34 0 42 -2 46 -13
34z"/>
<path d="M4380 3640 c0 -25 4 -39 10 -35 6 3 10 19 10 35 0 16 -4 32 -10 35
-6 4 -10 -10 -10 -35z"/>
<path d="M4776 3654 c-14 -14 -16 -48 -14 -262 l3 -246 27 -15 c25 -15 31 -12
222 104 200 121 217 136 202 183 -7 21 -380 252 -408 252 -9 0 -24 -7 -32 -16z"/>
<path d="M5500 3641 c0 -17 5 -33 10 -36 6 -4 10 8 10 29 0 20 -4 36 -10 36
-5 0 -10 -13 -10 -29z"/>
<path d="M468 3625 c-44 -16 -88 -44 -88 -56 0 -11 35 -34 81 -53 l36 -15 15
70 c16 75 16 76 -44 54z"/>
<path d="M804 3577 c4 -29 11 -56 16 -61 10 -10 102 35 108 52 5 15 -36 39
-87 51 l-43 9 6 -51z"/>
<path d="M4380 3525 c0 -19 5 -35 10 -35 6 0 10 16 10 35 0 19 -4 35 -10 35
-5 0 -10 -16 -10 -35z"/>
<path d="M5500 3525 c0 -19 5 -35 10 -35 6 0 10 16 10 35 0 19 -4 35 -10 35
-5 0 -10 -16 -10 -35z"/>
<path d="M595 3540 c3 -5 8 -10 11 -10 2 0 4 5 4 10 0 6 -5 10 -11 10 -5 0 -7
-4 -4 -10z"/>
<path d="M651 3545 c-1 -5 3 -17 9 -25 5 -9 5 -19 -2 -27 -7 -9 -7 -13 0 -13
20 0 23 19 8 47 -8 16 -15 24 -15 18z"/>
<path d="M705 3540 c3 -5 8 -10 11 -10 2 0 4 5 4 10 0 6 -5 10 -11 10 -5 0 -7
-4 -4 -10z"/>
<path d="M4380 3409 c0 -24 4 -38 10 -34 6 3 10 22 10 41 0 19 -4 34 -10 34
-5 0 -10 -18 -10 -41z"/>
<path d="M5507 3443 c-11 -10 -8 -73 3 -73 6 0 10 18 10 40 0 41 -2 45 -13 33z"/>
<path d="M4380 3295 c0 -19 5 -35 10 -35 6 0 10 16 10 35 0 19 -4 35 -10 35
-5 0 -10 -16 -10 -35z"/>
<path d="M5500 3295 c0 -19 5 -35 10 -35 6 0 10 16 10 35 0 19 -4 35 -10 35
-5 0 -10 -16 -10 -35z"/>
<path d="M3814 3253 c30 -228 25 -430 -14 -619 -62 -302 -218 -554 -443 -718
-62 -46 -80 -66 -58 -66 18 0 129 90 204 166 161 163 263 355 319 605 21 93
23 129 23 344 0 243 -7 335 -27 335 -7 0 -8 -17 -4 -47z"/>
<path d="M4380 3180 c0 -25 4 -39 10 -35 6 3 10 19 10 35 0 16 -4 32 -10 35
-6 4 -10 -10 -10 -35z"/>
<path d="M5507 3213 c-11 -10 -8 -61 3 -68 6 -4 10 10 10 34 0 42 -2 46 -13
34z"/>
<path d="M4380 3070 c0 -25 4 -39 10 -35 6 3 10 19 10 35 0 16 -4 32 -10 35
-6 4 -10 -10 -10 -35z"/>
<path d="M5500 3071 c0 -17 5 -33 10 -36 6 -4 10 8 10 29 0 20 -4 36 -10 36
-5 0 -10 -13 -10 -29z"/>
<path d="M4380 2960 c0 -20 -5 -30 -15 -30 -12 0 -15 -13 -15 -60 l0 -60 60 0
c47 0 60 3 60 15 0 10 10 15 30 15 17 0 30 5 30 10 0 6 -13 10 -30 10 -28 0
-30 3 -30 35 0 33 -2 35 -35 35 -32 0 -35 2 -35 30 0 17 -4 30 -10 30 -5 0
-10 -13 -10 -30z m78 -92 l3 -48 -50 0 -51 0 0 51 0 50 48 -3 47 -3 3 -47z"/>
<path d="M4380 2870 c0 -27 3 -30 30 -30 17 0 30 5 30 10 0 6 -9 10 -20 10
-13 0 -20 7 -20 20 0 11 -4 20 -10 20 -5 0 -10 -13 -10 -30z"/>
<path d="M5500 2960 c0 -28 -3 -30 -35 -30 -33 0 -35 -2 -35 -35 0 -32 -2 -35
-30 -35 -16 0 -30 -4 -30 -10 0 -5 14 -10 30 -10 20 0 30 -5 30 -15 0 -12 13
-15 60 -15 l60 0 0 60 c0 47 -3 60 -15 60 -10 0 -15 10 -15 30 0 17 -4 30 -10
30 -5 0 -10 -13 -10 -30z m38 -93 l3 -48 -48 3 -48 3 -3 48 -3 48 48 -3 48 -3
3 -48z"/>
<path d="M5500 2880 c0 -13 -7 -20 -20 -20 -11 0 -20 -4 -20 -10 0 -5 14 -10
30 -10 27 0 30 3 30 30 0 17 -4 30 -10 30 -5 0 -10 -9 -10 -20z"/>
<path d="M723 2818 c-5 -84 -7 -157 -2 -162 4 -4 30 -1 58 9 46 15 50 19 53
52 l3 35 28 -22 c22 -17 35 -21 62 -16 19 4 37 12 41 17 6 10 -212 239 -227
239 -3 0 -10 -69 -16 -152z"/>
<path d="M4575 2850 c-4 -6 8 -10 29 -10 20 0 36 5 36 10 0 6 -13 10 -29 10
-17 0 -33 -4 -36 -10z"/>
<path d="M4685 2850 c-4 -6 10 -10 35 -10 25 0 39 4 35 10 -3 6 -19 10 -35 10
-16 0 -32 -4 -35 -10z"/>
<path d="M4800 2850 c0 -5 16 -10 36 -10 21 0 33 4 29 10 -3 6 -19 10 -36 10
-16 0 -29 -4 -29 -10z"/>
<path d="M4915 2850 c-4 -6 10 -10 35 -10 25 0 39 4 35 10 -3 6 -19 10 -35 10
-16 0 -32 -4 -35 -10z"/>
<path d="M5030 2850 c0 -5 16 -10 35 -10 19 0 35 5 35 10 0 6 -16 10 -35 10
-19 0 -35 -4 -35 -10z"/>
<path d="M5145 2850 c-4 -6 8 -10 29 -10 20 0 36 5 36 10 0 6 -13 10 -29 10
-17 0 -33 -4 -36 -10z"/>
<path d="M5255 2850 c-4 -6 10 -10 35 -10 25 0 39 4 35 10 -3 6 -19 10 -35 10
-16 0 -32 -4 -35 -10z"/>
<path d="M2609 2793 c-9 -10 -14 -40 -13 -82 l1 -65 -44 48 c-49 54 -63 52
-84 -12 -28 -85 -2 -221 54 -287 19 -22 42 -63 51 -92 17 -52 71 -113 100
-113 12 0 12 7 0 47 -8 25 -14 61 -14 80 0 29 3 33 28 33 25 0 90 15 151 35
15 5 21 4 17 -3 -9 -15 33 -42 65 -42 34 0 132 34 175 61 l34 21 1 -24 c3 -61
11 -93 30 -124 21 -34 39 -37 39 -6 0 9 9 32 20 50 17 27 23 31 39 22 11 -5
22 -10 24 -10 14 0 39 105 44 179 l6 85 -35 30 c-20 18 -43 52 -53 80 -22 60
-55 93 -102 102 -47 9 -173 -17 -253 -51 -36 -15 -83 -30 -105 -32 -37 -4 -46
-1 -92 41 -56 51 -64 54 -84 29z"/>
<path d="M850 2666 c0 -14 5 -28 10 -31 6 -3 10 5 10 19 0 14 -4 28 -10 31 -6
3 -10 -5 -10 -19z"/>
<path d="M861 2513 c0 -28 4 -55 9 -58 12 -7 12 15 1 70 l-9 40 -1 -52z"/>
<path d="M900 2382 c0 -17 40 -95 46 -89 8 8 -6 51 -26 77 -11 14 -20 19 -20
12z"/>
<path d="M2963 2304 c-8 -21 13 -34 55 -34 36 0 55 26 31 41 -24 15 -79 11
-86 -7z"/>
<path d="M2751 2291 c-22 -17 -25 -51 -4 -51 19 0 74 42 70 53 -6 19 -40 19
-66 -2z"/>
<path d="M1740 2283 c0 -5 5 -15 10 -23 8 -13 10 -12 10 3 0 12 8 17 30 17
l30 0 0 -100 c0 -73 -3 -100 -12 -101 -7 0 -3 -4 10 -9 13 -6 31 -6 45 0 12 5
16 9 10 9 -10 1 -13 28 -13 101 l0 100 30 0 c21 0 30 -5 30 -16 0 -8 5 -12 10
-9 6 3 10 13 10 21 0 11 -20 14 -100 14 -55 0 -100 -3 -100 -7z"/>
<path d="M4951 2205 c-46 -173 -135 -322 -275 -460 -113 -111 -190 -165 -425
-294 -101 -56 -210 -120 -242 -142 -32 -21 -62 -39 -67 -39 -5 0 -16 44 -26
98 -30 172 -67 224 -217 302 -113 59 -383 148 -412 137 -14 -5 -20 -17 -70
-128 -42 -94 -96 -156 -143 -165 -65 -12 -104 36 -125 154 -8 47 -25 107 -35
120 -3 5 -184 -68 -249 -101 -59 -29 -60 -30 -180 -23 -280 16 -547 76 -889
200 -78 28 -133 43 -138 38 -6 -6 39 -27 114 -55 353 -129 601 -186 891 -203
l119 -7 -40 -41 c-72 -74 -136 -230 -197 -483 -20 -82 -38 -156 -41 -165 -5
-16 -15 -13 -85 22 -99 50 -185 83 -202 77 -6 -3 11 -15 38 -26 28 -12 92 -42
142 -67 107 -52 116 -70 59 -116 -36 -29 -51 -62 -32 -76 6 -5 28 -12 49 -15
99 -15 168 -101 201 -249 11 -50 52 -31 99 44 10 16 21 28 25 28 4 0 20 -24
34 -54 25 -50 26 -60 19 -126 -5 -51 -12 -75 -24 -82 -9 -5 -17 -20 -17 -33
l0 -24 533 2 532 2 0 25 0 25 -292 -3 c-263 -3 -294 -2 -299 12 -7 19 22 56
42 56 8 0 20 11 29 23 17 26 55 47 86 47 11 0 50 15 87 34 37 18 108 46 157
61 82 25 106 27 260 29 160 1 172 0 206 -22 32 -19 38 -20 43 -6 12 31 6 72
-17 115 -23 42 -24 56 -29 316 l-6 272 79 51 c43 28 156 94 251 146 215 120
299 177 404 277 146 137 237 284 288 461 28 94 31 116 18 116 -5 0 -19 -38
-31 -85z m-2293 -1638 l-3 -42 -21 40 c-15 28 -19 46 -13 60 5 11 14 34 21 50
l13 30 3 -48 c2 -26 2 -67 0 -90z"/>
<path d="M2985 2230 c-9 -15 4 -50 20 -50 19 0 27 17 20 40 -7 21 -30 27 -40
10z"/>
<path d="M970 2173 c0 -29 5 -53 10 -53 13 0 13 70 0 90 -7 11 -10 0 -10 -37z"/>
<path d="M2876 2150 c-21 -66 -16 -80 29 -79 18 0 18 1 -2 9 -25 10 -29 30
-12 61 5 11 9 31 7 45 -2 19 -8 11 -22 -36z"/>
<path d="M2787 2193 c-13 -12 -7 -44 9 -50 20 -7 33 12 27 38 -5 19 -24 25
-36 12z"/>
<path d="M2241 2101 c-33 -21 354 -54 442 -37 70 13 37 25 -52 19 -76 -5 -315
10 -361 22 -8 3 -21 1 -29 -4z"/>
<path d="M927 2013 c-29 -46 -32 -53 -18 -53 14 0 53 68 49 82 -3 7 -17 -6
-31 -29z"/>
<path d="M3009 2022 c-20 -28 -52 -42 -80 -35 -18 4 -21 3 -13 -6 20 -21 75
-9 97 21 12 15 18 30 15 33 -3 4 -12 -2 -19 -13z"/>
<path d="M801 1880 c-19 -16 -32 -32 -29 -36 8 -7 78 44 78 57 0 15 -14 9 -49
-21z"/>
<path d="M4325 1876 c-18 -13 -17 -15 14 -65 33 -51 71 -69 71 -35 0 19 -50
114 -60 114 -3 0 -15 -6 -25 -14z"/>
<path d="M668 1782 c-16 -9 -28 -20 -28 -25 0 -9 56 19 65 33 9 15 -6 12 -37
-8z"/>
<path d="M500 1655 c-7 -9 -11 -18 -8 -20 3 -3 11 1 18 10 7 9 11 18 8 20 -3
3 -11 -1 -18 -10z"/>
<path d="M396 1549 c-29 -34 -36 -59 -11 -39 25 20 57 70 47 70 -6 0 -22 -14
-36 -31z"/>
<path d="M310 1399 c-6 -22 -9 -46 -7 -52 5 -13 19 19 31 66 10 44 -12 31 -24
-14z"/>
<path d="M466 1248 c-3 -13 -6 -33 -6 -45 0 -13 -4 -23 -9 -23 -24 0 -131 54
-131 66 0 8 -4 14 -9 14 -18 0 -20 -31 -3 -60 18 -31 36 -42 26 -15 -5 12 5
11 54 -7 l60 -21 5 -181 c4 -139 9 -197 24 -248 20 -67 20 -67 0 -57 -37 20
-144 136 -173 187 -16 29 -32 52 -35 52 -17 0 -34 -146 -33 -285 1 -134 3
-158 26 -223 15 -40 41 -95 58 -122 l32 -50 338 0 c385 0 354 -7 399 90 20 43
26 77 31 153 7 144 14 137 -134 137 -74 0 -136 5 -151 12 -38 17 -56 54 -130
258 -37 102 -76 195 -87 207 -19 20 -19 21 -1 26 14 3 10 8 -18 20 -22 10 -52
37 -75 69 -52 73 -51 72 -58 46z"/>
<path d="M370 1089 c0 -16 56 -76 65 -67 3 2 -11 22 -30 44 -21 25 -34 33 -35
23z"/>
<path d="M1210 783 c1 -30 133 -452 148 -472 10 -14 34 -34 53 -43 31 -16 77
-18 511 -18 450 0 478 1 487 18 23 43 7 46 -259 44 -232 -2 -253 -1 -278 17
-16 11 -67 26 -125 35 -151 24 -146 19 -217 274 l-43 152 -139 0 c-76 0 -138
-3 -138 -7z"/>
<path d="M1977 603 c-3 -5 14 -60 37 -123 29 -80 46 -116 59 -118 23 -5 22 5
-18 135 -29 92 -39 113 -55 113 -10 0 -21 -3 -23 -7z"/>
<path d="M4979 574 c-107 -57 -471 -61 -622 -8 -49 17 -60 7 -51 -46 10 -56
57 -132 105 -167 24 -18 54 -42 66 -53 21 -21 27 -22 190 -14 l168 7 51 38
c93 69 134 136 134 223 0 39 -2 41 -41 20z"/>
</g>
</svg>
